Coordinates
version=1
nRows=13
nColumns=36
inDegrees=yes

Units are S.I. units (second, meters, Newtons, ...)
If the header above contains a line with 'inDegrees', this indicates whether rotational values are in degrees (yes) or radians (no).

endheader
time	pelvis_tilt	pelvis_list	pelvis_rotation	pelvis_tx	pelvis_ty	pelvis_tz	hip_flexion_r	hip_adduction_r	hip_rotation_r	knee_angle_r	knee_angle_r_beta	ankle_angle_r	subtalar_angle_r	mtp_angle_r	hip_flexion_l	hip_adduction_l	hip_rotation_l	knee_angle_l	knee_angle_l_beta	ankle_angle_l	subtalar_angle_l	mtp_angle_l	lumbar_extension	lumbar_bending	lumbar_rotation	arm_flex_r	arm_add_r	arm_rot_r	elbow_flex_r	pro_sup_r	arm_flex_l	arm_add_l	arm_rot_l	elbow_flex_l	pro_sup_l
      0.00000000	     -6.21056497	     -2.18811902	    177.22735166	      0.80216270	      1.12303433	      0.73585230	     17.74404533	     -6.69677142	      2.14050470	     76.58702028	      1.33669567	     -8.92335180	    -16.26162129	     -8.18921186	      3.10506469	      3.70898696	      1.54126451	     15.74926838	      0.27487659	      1.54393642	    -11.48193879	     -8.18921186	    -21.99596179	     -4.29690184	      4.19926640	      6.72333214	    -13.68668680	     -3.51495235	     29.87033056	     99.44051009	     15.42433412	    -13.13702558	      2.98358049	     23.27034892	     97.69680828
      0.01666670	     -5.76721833	     -1.75014619	    176.79673765	      0.80778176	      1.12848969	      0.73640116	     20.24447652	     -4.89757096	      3.44302268	     76.15398332	      1.32913775	     -6.83307580	    -14.14813493	     -8.17195278	      1.71370138	      3.15393595	      1.53559402	     13.59379163	      0.23725642	     -3.27373614	    -12.85223935	     -8.17195278	    -21.43024342	     -3.99247358	      4.02033924	      7.28671481	    -13.54503841	     -2.29546806	     29.30657098	    104.83135663	     16.71456582	    -13.26417722	      7.13508393	     22.67221825	    103.22480102
      0.03333330	     -4.98813184	     -1.23338513	    177.00259380	      0.81120315	      1.13075324	      0.73731473	     22.69315162	     -3.69964558	      3.80210421	     74.42393384	      1.29894269	     -5.41555667	    -12.33136584	     -8.18329004	      1.17342464	      2.44101472	      1.14741280	     12.38185363	      0.21610411	     -5.69440150	    -12.78505236	     -8.18329004	    -20.84043315	     -3.45057677	      3.85761608	      7.41182133	    -13.51608171	     -1.90176832	     28.79942317	    107.02204221	     18.44970264	    -13.22050047	      8.79958061	     22.09701732	    104.79652214
      0.05000000	     -4.16590218	     -1.17505134	    178.13836871	      0.81240689	      1.13167441	      0.73742804	     24.70438391	     -3.62882597	      2.89707843	     72.02367877	      1.25705033	     -3.23425258	    -10.48707547	     -8.17818510	      1.21154663	      2.32190147	      1.90072530	     12.36275373	      0.21577076	     -4.98403863	    -11.74614026	     -8.17818510	    -20.32423603	     -3.26731856	      2.77490325	      7.29621592	    -13.15546235	     -1.86657876	     28.31085039	    108.08308723	     19.99402245	    -13.69104004	     10.52933748	     22.23630095	    105.60991382
      0.06666670	     -3.36421291	     -1.03664463	    179.29674803	      0.81254216	      1.13467336	      0.73603169	     26.20624850	     -3.79780239	      1.59230793	     68.48712698	      1.19532586	     -2.19061895	     -8.97118827	     -8.16716381	      1.08331914	      2.00871193	      2.73284947	     12.21850655	      0.21325317	     -3.88421636	    -10.19922476	     -8.16716381	    -19.79290872	     -2.96207436	      1.61156274	      7.21032978	    -12.70862863	     -2.09975763	     27.75541772	    107.78563988	     21.09613292	    -14.24551401	     11.33685601	     22.63656582	    105.27726865
      0.08333330	     -2.71943421	     -0.61234993	    180.23705606	      0.81342430	      1.13895756	      0.73423557	     27.00197368	     -3.71595174	      0.20008682	     63.69790729	      1.11173821	     -2.13181415	     -7.97750268	     -8.17822038	      0.77927099	      1.40663245	      3.46241625	     12.02774771	      0.20992380	     -2.33361738	     -8.69570572	     -8.17822038	    -19.38345553	     -2.40725022	      0.76877107	      6.92955286	    -12.38719190	     -2.56395077	     27.58302586	    107.55872898	     21.86820630	    -14.67324098	     11.16791679	     23.32224984	    105.24176294
      0.10000000	     -2.15724795	     -0.11916176	    180.99421761	      0.81595119	      1.14183506	      0.73367387	     27.22494584	     -3.55257084	     -1.10377857	     57.97549459	      1.01186327	     -2.74886862	     -7.50084415	     -8.14799895	      0.55472160	      0.77867946	      4.18637476	     12.03888270	      0.21011814	     -0.77515904	     -7.26280071	     -8.14799895	    -19.03952230	     -1.82710370	      0.12981096	      6.69177437	    -12.20106583	     -2.39005412	     27.41604849	    106.05609958	     22.61790840	    -15.05295545	     11.05317788	     23.93773470	    104.31383710
      0.11666670	     -1.62998465	      0.28005318	    181.45927545	      0.81901054	      1.14186773	      0.73397941	     27.13778616	     -3.34751189	     -2.03443525	     51.73826054	      0.90300300	     -3.70054279	     -7.23073807	     -8.16484797	      0.47721659	      0.25370578	      4.48942651	     12.32766803	      0.21515840	      0.72783747	     -5.59677500	     -8.16484797	    -18.80148163	     -1.34988474	     -0.38345805	      6.49162718	    -12.00855738	     -2.72034691	     27.57596058	    105.81300993	     23.17402825	    -15.45024431	     10.15937789	     25.06504963	    104.22629816
      0.13333330	     -1.02752979	      0.37294907	    181.83822515	      0.82118524	      1.13976659	      0.73404215	     27.02345159	     -3.38896797	     -2.56142826	     45.25290941	      0.78981227	     -4.96744854	     -7.51055842	     -8.13496771	      0.47374823	      0.10273749	      5.24811019	     12.60033593	      0.21991735	      1.66405328	     -5.04664865	     -8.13496771	    -18.63186602	     -1.17336290	     -0.82796839	      6.01026871	    -11.85685840	     -2.77298782	     28.56110870	    103.54560292	     23.66822429	    -15.94992585	      9.65308177	     26.73795252	    102.03758737
      0.15000000	     -0.17748924	      0.22199874	    182.05854456	      0.82165327	      1.13747201	      0.73372019	     27.06587485	     -3.65558937	     -2.79871281	     38.51674487	      0.67224402	     -5.96205238	     -7.13077045	     -8.13734343	      0.58745717	      0.19165906	      5.76170450	     12.71597917	      0.22193570	      2.54562353	     -4.60555466	     -8.13734343	    -17.95447928	     -1.30345681	     -1.17498203	      5.89871863	    -11.62419907	     -2.83862936	     28.33812501	    103.94470291	     24.41149148	    -16.26547206	      9.27811262	     27.13271961	    102.50838285
      0.16666670	      0.35784007	     -0.11468506	    182.25856722	      0.82123149	      1.13760102	      0.73301198	     26.47860275	     -4.02203339	     -2.77647219	     31.42851326	      0.54853104	     -7.55119966	     -6.86092841	     -8.10785581	      0.02536155	      0.43904935	      6.17480285	     12.31756726	      0.21498210	      3.39016116	     -4.04230276	     -8.10785581	    -17.68259087	     -1.53277123	     -2.16344417	      6.17918810	    -11.14019129	     -2.89708450	     28.22879765	    103.16730912	     24.14910606	    -16.86513837	      7.22101319	     28.76963379	    102.05120316
      0.18333330	      0.78060930	     -0.59136885	    182.47977531	      0.82053953	      1.13980070	      0.73122784	     25.53700489	     -4.53886741	     -2.75162024	     24.48305378	      0.42730990	     -9.06390032	     -5.61790708	     -8.11734105	     -0.81212203	      0.84284054	      6.63399197	     11.75757798	      0.20520845	      3.96926548	     -3.85497838	     -8.11734105	    -17.38388749	     -1.96414842	     -2.89416857	      6.32636025	    -10.75537039	     -2.83547752	     27.94879949	    103.00797451	     24.20340330	    -17.23596549	      5.83585409	     29.68712564	    102.14528048
      0.20000000	      1.08651587	     -1.17409565	    182.75573074	      0.81938894	      1.14121113	      0.72816460	     24.41345800	     -5.16184227	     -2.64117786	     18.20887744	      0.31780486	    -10.28755853	     -3.60808910	     -8.12359647	     -1.69285825	      1.32483591	      6.98225823	     11.50330509	      0.20077055	      4.46595946	     -3.73640719	     -8.12359647	    -17.05973207	     -2.57837576	     -3.42535382	      6.28950693	    -10.40536930	     -2.78296937	     27.73002014	    102.93429189	     24.57262481	    -17.54929311	      5.26898817	     30.06555936	    102.27931177
